<svg xmlns="http://www.w3.org/2000/svg" width="1080" height="1350" viewBox="0 0 1080 1350"><rect width="1080" height="1350" fill="#0f0f0f"></rect><rect x="0" y="0" width="1080" height="8" fill="#f59e0b"></rect><text x="540" y="820" text-anchor="middle" font-family="Georgia, serif" font-size="600" font-weight="900" fill="#1a1a1a">!</text><text x="60" y="80" font-family="monospace" font-size="28" fill="#f59e0b" letter-spacing="3">CRIMETHINC · APR 8, 2026</text><text x="60" y="200" font-family="Georgia, serif" font-size="148" font-weight="900" fill="#f5f5f5">THE</text><text x="60" y="355" font-family="Georgia, serif" font-size="148" font-weight="900" fill="#f59e0b">WINDOW</text><text x="60" y="510" font-family="Georgia, serif" font-size="148" font-weight="900" fill="#f5f5f5">OPENS</text><rect x="60" y="670" width="120" height="6" fill="#f59e0b"></rect><text x="60" y="730" font-family="Georgia, serif" font-size="50" font-style="italic" fill="#f5f5f5">"The moment of greatest</text><text x="60" y="792" font-family="Georgia, serif" font-size="50" font-style="italic" fill="#f5f5f5">danger turns out to be</text><text x="60" y="854" font-family="Georgia, serif" font-size="50" font-style="italic" fill="#f5f5f5">the moment of greatest</text><text x="60" y="916" font-family="Georgia, serif" font-size="50" font-style="italic" fill="#f5f5f5">possibility."</text><rect x="60" y="1000" width="960" height="1" fill="#2a2a2a"></rect><circle cx="75" cy="1032" r="7" fill="#f59e0b"></circle><text x="100" y="1040" font-family="Arial, sans-serif" font-size="38" fill="#f5f5f5">Build beyond anti-Trump messaging</text><circle cx="75" cy="1097" r="7" fill="#f59e0b"></circle><text x="100" y="1105" font-family="Arial, sans-serif" font-size="38" fill="#f5f5f5">The window closes at the midterms</text><circle cx="75" cy="1162" r="7" fill="#f59e0b"></circle><text x="100" y="1170" font-family="Arial, sans-serif" font-size="38" fill="#f5f5f5">Resistance demonstrably works</text><circle cx="75" cy="1227" r="7" fill="#f59e0b"></circle><text x="100" y="1235" font-family="Arial, sans-serif" font-size="38" fill="#f5f5f5">This is the moment for real change</text><rect x="0" y="1310" width="1080" height="40" fill="#f59e0b"></rect><text x="540" y="1337" text-anchor="middle" font-family="monospace" font-size="22" fill="#0f0f0f" font-weight="bold">crimethinc.com · full article at link below</text></svg>