<svg xmlns="http://www.w3.org/2000/svg" width="1080" height="1350" viewBox="0 0 1080 1350"><rect width="1080" height="1350" fill="#0d0d0d"></rect><rect x="0" y="0" width="1080" height="8" fill="#dc2626"></rect><text x="540" y="750" text-anchor="middle" font-family="Georgia, serif" font-size="420" font-weight="900" fill="#1c0a0a">UFW</text><text x="60" y="80" font-family="monospace" font-size="28" fill="#dc2626" letter-spacing="3">LABOR NOTES · APR 6, 2026</text><text x="60" y="185" font-family="Georgia, serif" font-size="110" font-weight="900" fill="#f5f5f5">NO DEMOCRACY,</text><text x="60" y="310" font-family="Georgia, serif" font-size="158" font-weight="900" fill="#dc2626">NO</text><text x="60" y="490" font-family="Georgia, serif" font-size="88" font-weight="900" fill="#f5f5f5">ACCOUNTABILITY</text><rect x="60" y="530" width="120" height="6" fill="#dc2626"></rect><text x="60" y="595" font-family="Georgia, serif" font-size="60" font-style="italic" fill="#f5f5f5">"He was immune</text><text x="60" y="667" font-family="Georgia, serif" font-size="60" font-style="italic" fill="#f5f5f5">from investigation."</text><text x="60" y="755" font-family="Arial, sans-serif" font-size="34" fill="#a3a3a3">— Bardacke on Chavez / UFW</text><rect x="60" y="820" width="960" height="1" fill="#2a2a2a"></rect><rect x="60" y="840" width="6" height="52" fill="#dc2626"></rect><text x="84" y="876" font-family="Arial, sans-serif" font-size="36" fill="#f5f5f5">No union locals — workers couldn't elect reps</text><rect x="60" y="914" width="6" height="52" fill="#dc2626"></rect><text x="84" y="950" font-family="Arial, sans-serif" font-size="36" fill="#f5f5f5">All staff owed their jobs to Chavez alone</text><rect x="60" y="988" width="6" height="52" fill="#dc2626"></rect><text x="84" y="1024" font-family="Arial, sans-serif" font-size="36" fill="#f5f5f5">When elected reps emerged, he fired them</text><rect x="60" y="1062" width="6" height="52" fill="#dc2626"></rect><text x="84" y="1098" font-family="Arial, sans-serif" font-size="36" fill="#f5f5f5">Internal conflict handed victory to growers</text><rect x="60" y="1136" width="6" height="52" fill="#dc2626"></rect><text x="84" y="1172" font-family="Arial, sans-serif" font-size="36" fill="#f5f5f5">By 1994: workers afraid to say 'union'</text><rect x="0" y="1310" width="1080" height="40" fill="#dc2626"></rect><text x="540" y="1337" text-anchor="middle" font-family="monospace" font-size="22" fill="#0d0d0d" font-weight="bold">labornotes.org · full article at link below</text></svg>